<svg version="1.1" viewBox="0.0 0.0 625.0 384.0" fill="none" stroke="none" stroke-linecap="square" stroke-miterlimit="10" width="625" height="384" xmlns:xlink="http://www.w3.org/1999/xlink" xmlns="http://www.w3.org/2000/svg"><path fill="#ffffff" d="M0 0L625.0 0L625.0 384.0L0 384.0L0 0Z" fill-rule="nonzero"/><path stroke="#333333" stroke-width="1.0" stroke-linecap="butt" d="M64.5 334.5L605.5 334.5" fill-rule="nonzero"/><path stroke="#cccccc" stroke-width="1.0" stroke-linecap="butt" d="M64.5 276.5L605.5 276.5" fill-rule="nonzero"/><path stroke="#cccccc" stroke-width="1.0" stroke-linecap="butt" d="M64.5 217.5L605.5 217.5" fill-rule="nonzero"/><path stroke="#cccccc" stroke-width="1.0" stroke-linecap="butt" d="M64.5 158.5L605.5 158.5" fill-rule="nonzero"/><path stroke="#cccccc" stroke-width="1.0" stroke-linecap="butt" d="M64.5 100.5L605.5 100.5" fill-rule="nonzero"/><clipPath id="id_0"><path d="M64.2 100.3L605.8 100.3L605.8 334.8L64.2 334.8L64.2 100.3Z" clip-rule="nonzero"/></clipPath><path stroke="#000000" stroke-width="2.0" stroke-linecap="butt" stroke-opacity="0.0" clip-path="url(#id_0)" d="M219.0 335.0L146.0 335.0L146.0 107.0C146.0 105.89543 146.89543 105.0 148.0 105.0L217.0 105.0C218.10457 105.0 219.0 105.89543 219.0 107.0Z" fill-rule="nonzero"/><path fill="#4285f4" clip-path="url(#id_0)" d="M219.0 335.0L146.0 335.0L146.0 107.0C146.0 105.89543 146.89543 105.0 148.0 105.0L217.0 105.0C218.10457 105.0 219.0 105.89543 219.0 107.0Z" fill-rule="nonzero"/><path stroke="#000000" stroke-width="2.0" stroke-linecap="butt" stroke-opacity="0.0" clip-path="url(#id_0)" d="M449.0 335.0L376.0 335.0L376.0 149.0C376.0 147.89543 376.89542 147.0 378.0 147.0L447.0 147.0C448.10458 147.0 449.0 147.89543 449.0 149.0Z" fill-rule="nonzero"/><path fill="#4285f4" clip-path="url(#id_0)" d="M449.0 335.0L376.0 335.0L376.0 149.0C376.0 147.89543 376.89542 147.0 378.0 147.0L447.0 147.0C448.10458 147.0 449.0 147.89543 449.0 149.0Z" fill-rule="nonzero"/><path stroke="#000000" stroke-width="2.0" stroke-linecap="butt" stroke-opacity="0.0" clip-path="url(#id_0)" d="M294.0 335.0L221.0 335.0L221.0 179.0C221.0 177.89543 221.89543 177.0 223.0 177.0L292.0 177.0C293.10458 177.0 294.0 177.89543 294.0 179.0Z" fill-rule="nonzero"/><path fill="#ea4335" clip-path="url(#id_0)" d="M294.0 335.0L221.0 335.0L221.0 179.0C221.0 177.89543 221.89543 177.0 223.0 177.0L292.0 177.0C293.10458 177.0 294.0 177.89543 294.0 179.0Z" fill-rule="nonzero"/><path stroke="#000000" stroke-width="2.0" stroke-linecap="butt" stroke-opacity="0.0" clip-path="url(#id_0)" d="M524.0 335.0L451.0 335.0L451.0 173.0C451.0 171.89543 451.89542 171.0 453.0 171.0L522.0 171.0C523.10455 171.0 524.0 171.89543 524.0 173.0Z" fill-rule="nonzero"/><path fill="#ea4335" clip-path="url(#id_0)" d="M524.0 335.0L451.0 335.0L451.0 173.0C451.0 171.89543 451.89542 171.0 453.0 171.0L522.0 171.0C523.10455 171.0 524.0 171.89543 524.0 173.0Z" fill-rule="nonzero"/><path stroke="#4285f4" stroke-width="3.0" stroke-linejoin="round" stroke-linecap="round" d="M170.54688 120.11662L171.64062 120.11662Q172.65625 120.101 173.23438 119.58537Q173.82812 119.05412 173.82812 118.1635Q173.82812 116.1635 171.84375 116.1635Q170.90625 116.1635 170.34375 116.69475Q169.78125 117.226 169.78125 118.11662L168.34375 118.11662Q168.34375 116.75725 169.32812 115.86662Q170.3125 114.976 171.84375 114.976Q173.45312 114.976 174.35938 115.83537Q175.28125 116.67912 175.28125 118.19475Q175.28125 118.92912 174.79688 119.63225Q174.3125 120.31975 173.48438 120.6635Q174.42188 120.96037 174.9375 121.64787Q175.45312 122.33537 175.45312 123.33537Q175.45312 124.86662 174.45312 125.77287Q173.45312 126.6635 171.84375 126.6635Q170.25 126.6635 169.23438 125.80412Q168.23438 124.92912 168.23438 123.50725L169.6875 123.50725Q169.6875 124.39787 170.26562 124.94475Q170.85938 125.476 171.84375 125.476Q172.89062 125.476 173.4375 124.92912Q174.0 124.38225 174.0 123.36662Q174.0 122.36662 173.39062 121.83537Q172.78125 121.30412 171.64062 121.2885L170.54688 121.2885L170.54688 120.11662ZM182.98438 121.50725Q182.53125 122.0385 181.90625 122.36662Q181.28125 122.69475 180.53125 122.69475Q179.54688 122.69475 178.8125 122.21037Q178.07812 121.726 177.67188 120.851Q177.28125 119.976 177.28125 118.9135Q177.28125 117.77287 177.71875 116.86662Q178.15625 115.94475 178.95312 115.46037Q179.75 114.976 180.8125 114.976Q182.5 114.976 183.46875 116.24162Q184.4375 117.49162 184.4375 119.67912L184.4375 120.101Q184.4375 123.4135 183.125 124.94475Q181.8125 126.476 179.17188 126.52287L178.89062 126.52287L178.89062 125.2885L179.1875 125.2885Q180.98438 125.25725 181.9375 124.36662Q182.90625 123.46037 182.98438 121.50725ZM180.76562 121.50725Q181.48438 121.50725 182.09375 121.06975Q182.71875 120.61662 183.0 119.96037L183.0 119.38225Q183.0 117.96037 182.375 117.06975Q181.76562 116.17912 180.8125 116.17912Q179.85938 116.17912 179.28125 116.9135Q178.70312 117.63225 178.70312 118.83537Q178.70312 119.99162 179.26562 120.75725Q179.82812 121.50725 180.76562 121.50725ZM186.32812 117.31975Q186.32812 116.2885 186.96875 115.63225Q187.625 114.96037 188.65625 114.96037Q189.6875 114.96037 190.32812 115.63225Q190.98438 116.30412 190.98438 117.36662L190.98438 117.9135Q190.98438 118.94475 190.32812 119.601Q189.67188 120.25725 188.67188 120.25725Q187.65625 120.25725 186.98438 119.601Q186.32812 118.94475 186.32812 117.86662L186.32812 117.31975ZM187.40625 117.9135Q187.40625 118.52287 187.75 118.92912Q188.09375 119.31975 188.67188 119.31975Q189.21875 119.31975 189.5625 118.94475Q189.90625 118.55412 189.90625 117.88225L189.90625 117.31975Q189.90625 116.71037 189.5625 116.31975Q189.23438 115.9135 188.65625 115.9135Q188.07812 115.9135 187.73438 116.31975Q187.40625 116.71037 187.40625 117.351L187.40625 117.9135ZM191.85938 123.71037Q191.85938 122.69475 192.51562 122.0385Q193.17188 121.36662 194.1875 121.36662Q195.21875 121.36662 195.875 122.02287Q196.53125 122.67912 196.53125 123.77287L196.53125 124.31975Q196.53125 125.351 195.875 126.02287Q195.21875 126.67912 194.20312 126.67912Q193.1875 126.67912 192.51562 126.02287Q191.85938 125.36662 191.85938 124.27287L191.85938 123.71037ZM192.9375 124.31975Q192.9375 124.94475 193.28125 125.33537Q193.625 125.726 194.20312 125.726Q194.76562 125.726 195.09375 125.351Q195.4375 124.96037 195.4375 124.2885L195.4375 123.71037Q195.4375 123.101 195.09375 122.71037Q194.76562 122.31975 194.1875 122.31975Q193.64062 122.31975 193.28125 122.71037Q192.9375 123.08537 192.9375 123.74162L192.9375 124.31975ZM189.0 125.64787L188.17188 125.13225L193.73438 116.24162L194.54688 116.75725L189.0 125.64787Z" fill-rule="nonzero"/><path fill="#ffffff" d="M170.54688 120.11662L171.64062 120.11662Q172.65625 120.101 173.23438 119.58537Q173.82812 119.05412 173.82812 118.1635Q173.82812 116.1635 171.84375 116.1635Q170.90625 116.1635 170.34375 116.69475Q169.78125 117.226 169.78125 118.11662L168.34375 118.11662Q168.34375 116.75725 169.32812 115.86662Q170.3125 114.976 171.84375 114.976Q173.45312 114.976 174.35938 115.83537Q175.28125 116.67912 175.28125 118.19475Q175.28125 118.92912 174.79688 119.63225Q174.3125 120.31975 173.48438 120.6635Q174.42188 120.96037 174.9375 121.64787Q175.45312 122.33537 175.45312 123.33537Q175.45312 124.86662 174.45312 125.77287Q173.45312 126.6635 171.84375 126.6635Q170.25 126.6635 169.23438 125.80412Q168.23438 124.92912 168.23438 123.50725L169.6875 123.50725Q169.6875 124.39787 170.26562 124.94475Q170.85938 125.476 171.84375 125.476Q172.89062 125.476 173.4375 124.92912Q174.0 124.38225 174.0 123.36662Q174.0 122.36662 173.39062 121.83537Q172.78125 121.30412 171.64062 121.2885L170.54688 121.2885L170.54688 120.11662ZM182.98438 121.50725Q182.53125 122.0385 181.90625 122.36662Q181.28125 122.69475 180.53125 122.69475Q179.54688 122.69475 178.8125 122.21037Q178.07812 121.726 177.67188 120.851Q177.28125 119.976 177.28125 118.9135Q177.28125 117.77287 177.71875 116.86662Q178.15625 115.94475 178.95312 115.46037Q179.75 114.976 180.8125 114.976Q182.5 114.976 183.46875 116.24162Q184.4375 117.49162 184.4375 119.67912L184.4375 120.101Q184.4375 123.4135 183.125 124.94475Q181.8125 126.476 179.17188 126.52287L178.89062 126.52287L178.89062 125.2885L179.1875 125.2885Q180.98438 125.25725 181.9375 124.36662Q182.90625 123.46037 182.98438 121.50725ZM180.76562 121.50725Q181.48438 121.50725 182.09375 121.06975Q182.71875 120.61662 183.0 119.96037L183.0 119.38225Q183.0 117.96037 182.375 117.06975Q181.76562 116.17912 180.8125 116.17912Q179.85938 116.17912 179.28125 116.9135Q178.70312 117.63225 178.70312 118.83537Q178.70312 119.99162 179.26562 120.75725Q179.82812 121.50725 180.76562 121.50725ZM186.32812 117.31975Q186.32812 116.2885 186.96875 115.63225Q187.625 114.96037 188.65625 114.96037Q189.6875 114.96037 190.32812 115.63225Q190.98438 116.30412 190.98438 117.36662L190.98438 117.9135Q190.98438 118.94475 190.32812 119.601Q189.67188 120.25725 188.67188 120.25725Q187.65625 120.25725 186.98438 119.601Q186.32812 118.94475 186.32812 117.86662L186.32812 117.31975ZM187.40625 117.9135Q187.40625 118.52287 187.75 118.92912Q188.09375 119.31975 188.67188 119.31975Q189.21875 119.31975 189.5625 118.94475Q189.90625 118.55412 189.90625 117.88225L189.90625 117.31975Q189.90625 116.71037 189.5625 116.31975Q189.23438 115.9135 188.65625 115.9135Q188.07812 115.9135 187.73438 116.31975Q187.40625 116.71037 187.40625 117.351L187.40625 117.9135ZM191.85938 123.71037Q191.85938 122.69475 192.51562 122.0385Q193.17188 121.36662 194.1875 121.36662Q195.21875 121.36662 195.875 122.02287Q196.53125 122.67912 196.53125 123.77287L196.53125 124.31975Q196.53125 125.351 195.875 126.02287Q195.21875 126.67912 194.20312 126.67912Q193.1875 126.67912 192.51562 126.02287Q191.85938 125.36662 191.85938 124.27287L191.85938 123.71037ZM192.9375 124.31975Q192.9375 124.94475 193.28125 125.33537Q193.625 125.726 194.20312 125.726Q194.76562 125.726 195.09375 125.351Q195.4375 124.96037 195.4375 124.2885L195.4375 123.71037Q195.4375 123.101 195.09375 122.71037Q194.76562 122.31975 194.1875 122.31975Q193.64062 122.31975 193.28125 122.71037Q192.9375 123.08537 192.9375 123.74162L192.9375 124.31975ZM189.0 125.64787L188.17188 125.13225L193.73438 116.24162L194.54688 116.75725L189.0 125.64787Z" fill-rule="nonzero"/><path stroke="#4285f4" stroke-width="3.0" stroke-linejoin="round" stroke-linecap="round" d="M400.54688 162.20938L401.64062 162.20938Q402.65625 162.19376 403.23438 161.67813Q403.82812 161.14688 403.82812 160.25626Q403.82812 158.25626 401.84375 158.25626Q400.90625 158.25626 400.34375 158.7875Q399.78125 159.31876 399.78125 160.20938L398.34375 160.20938Q398.34375 158.85 399.32812 157.95938Q400.3125 157.06876 401.84375 157.06876Q403.45312 157.06876 404.35938 157.92813Q405.28125 158.77188 405.28125 160.2875Q405.28125 161.02188 404.79688 161.725Q404.3125 162.4125 403.48438 162.75626Q404.42188 163.05313 404.9375 163.74063Q405.45312 164.42813 405.45312 165.42813Q405.45312 166.95938 404.45312 167.86563Q403.45312 168.75626 401.84375 168.75626Q400.25 168.75626 399.23438 167.89688Q398.23438 167.02188 398.23438 165.6L399.6875 165.6Q399.6875 166.49063 400.26562 167.0375Q400.85938 167.56876 401.84375 167.56876Q402.89062 167.56876 403.4375 167.02188Q404.0 166.475 404.0 165.45938Q404.0 164.45938 403.39062 163.92813Q402.78125 163.39688 401.64062 163.38126L400.54688 163.38126L400.54688 162.20938ZM414.90625 168.6L407.45312 168.6L407.45312 167.55313L411.39062 163.17813Q412.26562 162.19376 412.59375 161.56876Q412.92188 160.94376 412.92188 160.2875Q412.92188 159.39688 412.375 158.83438Q411.84375 158.25626 410.95312 158.25626Q409.875 158.25626 409.26562 158.86563Q408.67188 159.475 408.67188 160.56876L407.23438 160.56876Q407.23438 159.00626 408.23438 158.0375Q409.25 157.06876 410.95312 157.06876Q412.53125 157.06876 413.45312 157.89688Q414.375 158.725 414.375 160.11563Q414.375 161.7875 412.23438 164.11563L409.1875 167.4125L414.90625 167.4125L414.90625 168.6ZM416.32812 159.4125Q416.32812 158.38126 416.96875 157.725Q417.625 157.05313 418.65625 157.05313Q419.6875 157.05313 420.32812 157.725Q420.98438 158.39688 420.98438 159.45938L420.98438 160.00626Q420.98438 161.0375 420.32812 161.69376Q419.67188 162.35 418.67188 162.35Q417.65625 162.35 416.98438 161.69376Q416.32812 161.0375 416.32812 159.95938L416.32812 159.4125ZM417.40625 160.00626Q417.40625 160.61563 417.75 161.02188Q418.09375 161.4125 418.67188 161.4125Q419.21875 161.4125 419.5625 161.0375Q419.90625 160.64688 419.90625 159.975L419.90625 159.4125Q419.90625 158.80313 419.5625 158.4125Q419.23438 158.00626 418.65625 158.00626Q418.07812 158.00626 417.73438 158.4125Q417.40625 158.80313 417.40625 159.44376L417.40625 160.00626ZM421.85938 165.80313Q421.85938 164.7875 422.51562 164.13126Q423.17188 163.45938 424.1875 163.45938Q425.21875 163.45938 425.875 164.11563Q426.53125 164.77188 426.53125 165.86563L426.53125 166.4125Q426.53125 167.44376 425.875 168.11563Q425.21875 168.77188 424.20312 168.77188Q423.1875 168.77188 422.51562 168.11563Q421.85938 167.45938 421.85938 166.36563L421.85938 165.80313ZM422.9375 166.4125Q422.9375 167.0375 423.28125 167.42813Q423.625 167.81876 424.20312 167.81876Q424.76562 167.81876 425.09375 167.44376Q425.4375 167.05313 425.4375 166.38126L425.4375 165.80313Q425.4375 165.19376 425.09375 164.80313Q424.76562 164.4125 424.1875 164.4125Q423.64062 164.4125 423.28125 164.80313Q422.9375 165.17813 422.9375 165.83438L422.9375 166.4125ZM419.0 167.74063L418.17188 167.225L423.73438 158.33438L424.54688 158.85L419.0 167.74063Z" fill-rule="nonzero"/><path fill="#ffffff" d="M400.54688 162.20938L401.64062 162.20938Q402.65625 162.19376 403.23438 161.67813Q403.82812 161.14688 403.82812 160.25626Q403.82812 158.25626 401.84375 158.25626Q400.90625 158.25626 400.34375 158.7875Q399.78125 159.31876 399.78125 160.20938L398.34375 160.20938Q398.34375 158.85 399.32812 157.95938Q400.3125 157.06876 401.84375 157.06876Q403.45312 157.06876 404.35938 157.92813Q405.28125 158.77188 405.28125 160.2875Q405.28125 161.02188 404.79688 161.725Q404.3125 162.4125 403.48438 162.75626Q404.42188 163.05313 404.9375 163.74063Q405.45312 164.42813 405.45312 165.42813Q405.45312 166.95938 404.45312 167.86563Q403.45312 168.75626 401.84375 168.75626Q400.25 168.75626 399.23438 167.89688Q398.23438 167.02188 398.23438 165.6L399.6875 165.6Q399.6875 166.49063 400.26562 167.0375Q400.85938 167.56876 401.84375 167.56876Q402.89062 167.56876 403.4375 167.02188Q404.0 166.475 404.0 165.45938Q404.0 164.45938 403.39062 163.92813Q402.78125 163.39688 401.64062 163.38126L400.54688 163.38126L400.54688 162.20938ZM414.90625 168.6L407.45312 168.6L407.45312 167.55313L411.39062 163.17813Q412.26562 162.19376 412.59375 161.56876Q412.92188 160.94376 412.92188 160.2875Q412.92188 159.39688 412.375 158.83438Q411.84375 158.25626 410.95312 158.25626Q409.875 158.25626 409.26562 158.86563Q408.67188 159.475 408.67188 160.56876L407.23438 160.56876Q407.23438 159.00626 408.23438 158.0375Q409.25 157.06876 410.95312 157.06876Q412.53125 157.06876 413.45312 157.89688Q414.375 158.725 414.375 160.11563Q414.375 161.7875 412.23438 164.11563L409.1875 167.4125L414.90625 167.4125L414.90625 168.6ZM416.32812 159.4125Q416.32812 158.38126 416.96875 157.725Q417.625 157.05313 418.65625 157.05313Q419.6875 157.05313 420.32812 157.725Q420.98438 158.39688 420.98438 159.45938L420.98438 160.00626Q420.98438 161.0375 420.32812 161.69376Q419.67188 162.35 418.67188 162.35Q417.65625 162.35 416.98438 161.69376Q416.32812 161.0375 416.32812 159.95938L416.32812 159.4125ZM417.40625 160.00626Q417.40625 160.61563 417.75 161.02188Q418.09375 161.4125 418.67188 161.4125Q419.21875 161.4125 419.5625 161.0375Q419.90625 160.64688 419.90625 159.975L419.90625 159.4125Q419.90625 158.80313 419.5625 158.4125Q419.23438 158.00626 418.65625 158.00626Q418.07812 158.00626 417.73438 158.4125Q417.40625 158.80313 417.40625 159.44376L417.40625 160.00626ZM421.85938 165.80313Q421.85938 164.7875 422.51562 164.13126Q423.17188 163.45938 424.1875 163.45938Q425.21875 163.45938 425.875 164.11563Q426.53125 164.77188 426.53125 165.86563L426.53125 166.4125Q426.53125 167.44376 425.875 168.11563Q425.21875 168.77188 424.20312 168.77188Q423.1875 168.77188 422.51562 168.11563Q421.85938 167.45938 421.85938 166.36563L421.85938 165.80313ZM422.9375 166.4125Q422.9375 167.0375 423.28125 167.42813Q423.625 167.81876 424.20312 167.81876Q424.76562 167.81876 425.09375 167.44376Q425.4375 167.05313 425.4375 166.38126L425.4375 165.80313Q425.4375 165.19376 425.09375 164.80313Q424.76562 164.4125 424.1875 164.4125Q423.64062 164.4125 423.28125 164.80313Q422.9375 165.17813 422.9375 165.83438L422.9375 166.4125ZM419.0 167.74063L418.17188 167.225L423.73438 158.33438L424.54688 158.85L419.0 167.74063Z" fill-rule="nonzero"/><path stroke="#ea4335" stroke-width="3.0" stroke-linejoin="round" stroke-linecap="round" d="M250.90625 197.9125L243.45312 197.9125L243.45312 196.86563L247.39062 192.49063Q248.26562 191.50626 248.59375 190.88126Q248.92188 190.25626 248.92188 189.6Q248.92188 188.70938 248.375 188.14688Q247.84375 187.56876 246.95312 187.56876Q245.875 187.56876 245.26562 188.17813Q244.67188 188.7875 244.67188 189.88126L243.23438 189.88126Q243.23438 188.31876 244.23438 187.35Q245.25 186.38126 246.95312 186.38126Q248.53125 186.38126 249.45312 187.20938Q250.375 188.0375 250.375 189.42813Q250.375 191.1 248.23438 193.42813L245.1875 196.725L250.90625 196.725L250.90625 197.9125ZM259.79688 187.35L255.07812 197.9125L253.5625 197.9125L258.26562 187.725L252.10938 187.725L252.10938 186.5375L259.79688 186.5375L259.79688 187.35ZM261.32812 188.725Q261.32812 187.69376 261.96875 187.0375Q262.625 186.36563 263.65625 186.36563Q264.6875 186.36563 265.32812 187.0375Q265.98438 187.70938 265.98438 188.77188L265.98438 189.31876Q265.98438 190.35 265.32812 191.00626Q264.67188 191.6625 263.67188 191.6625Q262.65625 191.6625 261.98438 191.00626Q261.32812 190.35 261.32812 189.27188L261.32812 188.725ZM262.40625 189.31876Q262.40625 189.92813 262.75 190.33438Q263.09375 190.725 263.67188 190.725Q264.21875 190.725 264.5625 190.35Q264.90625 189.95938 264.90625 189.2875L264.90625 188.725Q264.90625 188.11563 264.5625 187.725Q264.23438 187.31876 263.65625 187.31876Q263.07812 187.31876 262.73438 187.725Q262.40625 188.11563 262.40625 188.75626L262.40625 189.31876ZM266.85938 195.11563Q266.85938 194.1 267.51562 193.44376Q268.17188 192.77188 269.1875 192.77188Q270.21875 192.77188 270.875 193.42813Q271.53125 194.08438 271.53125 195.17813L271.53125 195.725Q271.53125 196.75626 270.875 197.42813Q270.21875 198.08438 269.20312 198.08438Q268.1875 198.08438 267.51562 197.42813Q266.85938 196.77188 266.85938 195.67813L266.85938 195.11563ZM267.9375 195.725Q267.9375 196.35 268.28125 196.74063Q268.625 197.13126 269.20312 197.13126Q269.76562 197.13126 270.09375 196.75626Q270.4375 196.36563 270.4375 195.69376L270.4375 195.11563Q270.4375 194.50626 270.09375 194.11563Q269.76562 193.725 269.1875 193.725Q268.64062 193.725 268.28125 194.11563Q267.9375 194.49063 267.9375 195.14688L267.9375 195.725ZM264.0 197.05313L263.17188 196.5375L268.73438 187.64688L269.54688 188.1625L264.0 197.05313Z" fill-rule="nonzero"/><path fill="#ffffff" d="M250.90625 197.9125L243.45312 197.9125L243.45312 196.86563L247.39062 192.49063Q248.26562 191.50626 248.59375 190.88126Q248.92188 190.25626 248.92188 189.6Q248.92188 188.70938 248.375 188.14688Q247.84375 187.56876 246.95312 187.56876Q245.875 187.56876 245.26562 188.17813Q244.67188 188.7875 244.67188 189.88126L243.23438 189.88126Q243.23438 188.31876 244.23438 187.35Q245.25 186.38126 246.95312 186.38126Q248.53125 186.38126 249.45312 187.20938Q250.375 188.0375 250.375 189.42813Q250.375 191.1 248.23438 193.42813L245.1875 196.725L250.90625 196.725L250.90625 197.9125ZM259.79688 187.35L255.07812 197.9125L253.5625 197.9125L258.26562 187.725L252.10938 187.725L252.10938 186.5375L259.79688 186.5375L259.79688 187.35ZM261.32812 188.725Q261.32812 187.69376 261.96875 187.0375Q262.625 186.36563 263.65625 186.36563Q264.6875 186.36563 265.32812 187.0375Q265.98438 187.70938 265.98438 188.77188L265.98438 189.31876Q265.98438 190.35 265.32812 191.00626Q264.67188 191.6625 263.67188 191.6625Q262.65625 191.6625 261.98438 191.00626Q261.32812 190.35 261.32812 189.27188L261.32812 188.725ZM262.40625 189.31876Q262.40625 189.92813 262.75 190.33438Q263.09375 190.725 263.67188 190.725Q264.21875 190.725 264.5625 190.35Q264.90625 189.95938 264.90625 189.2875L264.90625 188.725Q264.90625 188.11563 264.5625 187.725Q264.23438 187.31876 263.65625 187.31876Q263.07812 187.31876 262.73438 187.725Q262.40625 188.11563 262.40625 188.75626L262.40625 189.31876ZM266.85938 195.11563Q266.85938 194.1 267.51562 193.44376Q268.17188 192.77188 269.1875 192.77188Q270.21875 192.77188 270.875 193.42813Q271.53125 194.08438 271.53125 195.17813L271.53125 195.725Q271.53125 196.75626 270.875 197.42813Q270.21875 198.08438 269.20312 198.08438Q268.1875 198.08438 267.51562 197.42813Q266.85938 196.77188 266.85938 195.67813L266.85938 195.11563ZM267.9375 195.725Q267.9375 196.35 268.28125 196.74063Q268.625 197.13126 269.20312 197.13126Q269.76562 197.13126 270.09375 196.75626Q270.4375 196.36563 270.4375 195.69376L270.4375 195.11563Q270.4375 194.50626 270.09375 194.11563Q269.76562 193.725 269.1875 193.725Q268.64062 193.725 268.28125 194.11563Q267.9375 194.49063 267.9375 195.14688L267.9375 195.725ZM264.0 197.05313L263.17188 196.5375L268.73438 187.64688L269.54688 188.1625L264.0 197.05313Z" fill-rule="nonzero"/><path stroke="#ea4335" stroke-width="3.0" stroke-linejoin="round" stroke-linecap="round" d="M480.90625 192.05L473.45312 192.05L473.45312 191.00313L477.39062 186.62813Q478.26562 185.64375 478.59375 185.01875Q478.92188 184.39375 478.92188 183.7375Q478.92188 182.84688 478.375 182.28438Q477.84375 181.70625 476.95312 181.70625Q475.875 181.70625 475.26562 182.31563Q474.67188 182.925 474.67188 184.01875L473.23438 184.01875Q473.23438 182.45625 474.23438 181.4875Q475.25 180.51875 476.95312 180.51875Q478.53125 180.51875 479.45312 181.34688Q480.375 182.175 480.375 183.56563Q480.375 185.2375 478.23438 187.56563L475.1875 190.8625L480.90625 190.8625L480.90625 192.05ZM489.34375 183.64375Q489.34375 184.4875 488.89062 185.15938Q488.45312 185.81563 487.6875 186.19063Q488.57812 186.58125 489.09375 187.31563Q489.60938 188.05 489.60938 188.97188Q489.60938 190.45625 488.60938 191.33125Q487.625 192.20625 486.0 192.20625Q484.35938 192.20625 483.35938 191.33125Q482.375 190.44063 482.375 188.97188Q482.375 188.05 482.875 187.31563Q483.39062 186.56563 484.28125 186.19063Q483.51562 185.81563 483.07812 185.15938Q482.64062 184.4875 482.64062 183.64375Q482.64062 182.20625 483.5625 181.3625Q484.48438 180.51875 486.0 180.51875Q487.5 180.51875 488.42188 181.3625Q489.34375 182.20625 489.34375 183.64375ZM488.17188 188.94063Q488.17188 187.9875 487.5625 187.39375Q486.95312 186.78438 485.96875 186.78438Q485.0 186.78438 484.40625 187.37813Q483.82812 187.97188 483.82812 188.94063Q483.82812 189.90938 484.39062 190.47188Q484.96875 191.01875 486.0 191.01875Q487.01562 191.01875 487.59375 190.47188Q488.17188 189.90938 488.17188 188.94063ZM486.0 181.70625Q485.14062 181.70625 484.60938 182.2375Q484.09375 182.75313 484.09375 183.65938Q484.09375 184.53438 484.60938 185.06563Q485.125 185.59688 485.98438 185.59688Q486.85938 185.59688 487.375 185.06563Q487.90625 184.53438 487.90625 183.675Q487.90625 182.8 487.35938 182.25313Q486.82812 181.70625 486.0 181.70625ZM491.32812 182.8625Q491.32812 181.83125 491.96875 181.175Q492.625 180.50313 493.65625 180.50313Q494.6875 180.50313 495.32812 181.175Q495.98438 181.84688 495.98438 182.90938L495.98438 183.45625Q495.98438 184.4875 495.32812 185.14375Q494.67188 185.8 493.67188 185.8Q492.65625 185.8 491.98438 185.14375Q491.32812 184.4875 491.32812 183.40938L491.32812 182.8625ZM492.40625 183.45625Q492.40625 184.06563 492.75 184.47188Q493.09375 184.8625 493.67188 184.8625Q494.21875 184.8625 494.5625 184.4875Q494.90625 184.09688 494.90625 183.425L494.90625 182.8625Q494.90625 182.25313 494.5625 181.8625Q494.23438 181.45625 493.65625 181.45625Q493.07812 181.45625 492.73438 181.8625Q492.40625 182.25313 492.40625 182.89375L492.40625 183.45625ZM496.85938 189.25313Q496.85938 188.2375 497.51562 187.58125Q498.17188 186.90938 499.1875 186.90938Q500.21875 186.90938 500.875 187.56563Q501.53125 188.22188 501.53125 189.31563L501.53125 189.8625Q501.53125 190.89375 500.875 191.56563Q500.21875 192.22188 499.20312 192.22188Q498.1875 192.22188 497.51562 191.56563Q496.85938 190.90938 496.85938 189.81563L496.85938 189.25313ZM497.9375 189.8625Q497.9375 190.4875 498.28125 190.87813Q498.625 191.26875 499.20312 191.26875Q499.76562 191.26875 500.09375 190.89375Q500.4375 190.50313 500.4375 189.83125L500.4375 189.25313Q500.4375 188.64375 500.09375 188.25313Q499.76562 187.8625 499.1875 187.8625Q498.64062 187.8625 498.28125 188.25313Q497.9375 188.62813 497.9375 189.28438L497.9375 189.8625ZM494.0 191.19063L493.17188 190.675L498.73438 181.78438L499.54688 182.3L494.0 191.19063Z" fill-rule="nonzero"/><path fill="#ffffff" d="M480.90625 192.05L473.45312 192.05L473.45312 191.00313L477.39062 186.62813Q478.26562 185.64375 478.59375 185.01875Q478.92188 184.39375 478.92188 183.7375Q478.92188 182.84688 478.375 182.28438Q477.84375 181.70625 476.95312 181.70625Q475.875 181.70625 475.26562 182.31563Q474.67188 182.925 474.67188 184.01875L473.23438 184.01875Q473.23438 182.45625 474.23438 181.4875Q475.25 180.51875 476.95312 180.51875Q478.53125 180.51875 479.45312 181.34688Q480.375 182.175 480.375 183.56563Q480.375 185.2375 478.23438 187.56563L475.1875 190.8625L480.90625 190.8625L480.90625 192.05ZM489.34375 183.64375Q489.34375 184.4875 488.89062 185.15938Q488.45312 185.81563 487.6875 186.19063Q488.57812 186.58125 489.09375 187.31563Q489.60938 188.05 489.60938 188.97188Q489.60938 190.45625 488.60938 191.33125Q487.625 192.20625 486.0 192.20625Q484.35938 192.20625 483.35938 191.33125Q482.375 190.44063 482.375 188.97188Q482.375 188.05 482.875 187.31563Q483.39062 186.56563 484.28125 186.19063Q483.51562 185.81563 483.07812 185.15938Q482.64062 184.4875 482.64062 183.64375Q482.64062 182.20625 483.5625 181.3625Q484.48438 180.51875 486.0 180.51875Q487.5 180.51875 488.42188 181.3625Q489.34375 182.20625 489.34375 183.64375ZM488.17188 188.94063Q488.17188 187.9875 487.5625 187.39375Q486.95312 186.78438 485.96875 186.78438Q485.0 186.78438 484.40625 187.37813Q483.82812 187.97188 483.82812 188.94063Q483.82812 189.90938 484.39062 190.47188Q484.96875 191.01875 486.0 191.01875Q487.01562 191.01875 487.59375 190.47188Q488.17188 189.90938 488.17188 188.94063ZM486.0 181.70625Q485.14062 181.70625 484.60938 182.2375Q484.09375 182.75313 484.09375 183.65938Q484.09375 184.53438 484.60938 185.06563Q485.125 185.59688 485.98438 185.59688Q486.85938 185.59688 487.375 185.06563Q487.90625 184.53438 487.90625 183.675Q487.90625 182.8 487.35938 182.25313Q486.82812 181.70625 486.0 181.70625ZM491.32812 182.8625Q491.32812 181.83125 491.96875 181.175Q492.625 180.50313 493.65625 180.50313Q494.6875 180.50313 495.32812 181.175Q495.98438 181.84688 495.98438 182.90938L495.98438 183.45625Q495.98438 184.4875 495.32812 185.14375Q494.67188 185.8 493.67188 185.8Q492.65625 185.8 491.98438 185.14375Q491.32812 184.4875 491.32812 183.40938L491.32812 182.8625ZM492.40625 183.45625Q492.40625 184.06563 492.75 184.47188Q493.09375 184.8625 493.67188 184.8625Q494.21875 184.8625 494.5625 184.4875Q494.90625 184.09688 494.90625 183.425L494.90625 182.8625Q494.90625 182.25313 494.5625 181.8625Q494.23438 181.45625 493.65625 181.45625Q493.07812 181.45625 492.73438 181.8625Q492.40625 182.25313 492.40625 182.89375L492.40625 183.45625ZM496.85938 189.25313Q496.85938 188.2375 497.51562 187.58125Q498.17188 186.90938 499.1875 186.90938Q500.21875 186.90938 500.875 187.56563Q501.53125 188.22188 501.53125 189.31563L501.53125 189.8625Q501.53125 190.89375 500.875 191.56563Q500.21875 192.22188 499.20312 192.22188Q498.1875 192.22188 497.51562 191.56563Q496.85938 190.90938 496.85938 189.81563L496.85938 189.25313ZM497.9375 189.8625Q497.9375 190.4875 498.28125 190.87813Q498.625 191.26875 499.20312 191.26875Q499.76562 191.26875 500.09375 190.89375Q500.4375 190.50313 500.4375 189.83125L500.4375 189.25313Q500.4375 188.64375 500.09375 188.25313Q499.76562 187.8625 499.1875 187.8625Q498.64062 187.8625 498.28125 188.25313Q497.9375 188.62813 497.9375 189.28438L497.9375 189.8625ZM494.0 191.19063L493.17188 190.675L498.73438 181.78438L499.54688 182.3L494.0 191.19063Z" fill-rule="nonzero"/><path fill="#000000" d="M29.95 334.9406Q29.95 332.65936 30.41875 331.26874Q30.8875 329.8781 31.809376 329.1281Q32.746876 328.3625 34.153126 328.3625Q35.184376 328.3625 35.965626 328.78436Q36.746876 329.1906 37.246876 329.9875Q37.7625 330.76874 38.059376 331.90936Q38.35625 333.03436 38.35625 334.9406Q38.35625 337.20624 37.8875 338.6125Q37.41875 340.0031 36.48125 340.76874Q35.559376 341.51874 34.153126 341.51874Q32.278126 341.51874 31.215626 340.1906Q29.95 338.58124 29.95 334.9406ZM31.575 334.9406Q31.575 338.1125 32.309376 339.175Q33.059376 340.22186 34.153126 340.22186Q35.23125 340.22186 35.98125 339.175Q36.73125 338.1125 36.73125 334.9406Q36.73125 331.76874 35.98125 330.72186Q35.23125 329.675 34.1375 329.675Q33.04375 329.675 32.3875 330.59686Q31.575 331.76874 31.575 334.9406ZM40.246876 331.5031Q40.246876 330.1281 40.934376 329.15936Q41.6375 328.1906 42.95 328.1906Q44.16875 328.1906 44.965626 329.0656Q45.7625 329.925 45.7625 331.6125Q45.7625 333.2375 44.95 334.1281Q44.153126 335.0031 42.965626 335.0031Q41.809376 335.0031 41.028126 334.14374Q40.246876 333.26874 40.246876 331.5031ZM42.996876 329.28436Q42.403126 329.28436 42.0125 329.8Q41.621876 330.3 41.621876 331.65936Q41.621876 332.90936 42.0125 333.40936Q42.41875 333.90936 42.996876 333.90936Q43.590626 333.90936 43.98125 333.40936Q44.371876 332.89374 44.371876 331.55Q44.371876 330.3 43.98125 329.8Q43.590626 329.28436 42.996876 329.28436ZM43.0125 341.76874L50.059376 328.1906L51.340626 328.1906L44.309376 341.76874L43.0125 341.76874ZM48.575 338.26874Q48.575 336.89374 49.2625 335.925Q49.965626 334.95624 51.29375 334.95624Q52.5125 334.95624 53.29375 335.83124Q54.090626 336.6906 54.090626 338.3781Q54.090626 340.0031 53.29375 340.89374Q52.496876 341.76874 51.309376 341.76874Q50.1375 341.76874 49.35625 340.89374Q48.575 340.01874 48.575 338.26874ZM51.340626 336.05Q50.746876 336.05 50.35625 336.5656Q49.965626 337.0656 49.965626 338.4406Q49.965626 339.65936 50.35625 340.175Q50.746876 340.6906 51.325 340.6906Q51.934376 340.6906 52.325 340.175Q52.715626 339.65936 52.715626 338.3156Q52.715626 337.0656 52.325 336.5656Q51.934376 336.05 51.340626 336.05Z" fill-rule="nonzero"/><path fill="#000000" d="M25.903126 282.675L24.325 282.675L24.325 272.59686Q23.746876 273.14374 22.825 273.6906Q21.903126 274.22186 21.153126 274.5031L21.153126 272.97186Q22.48125 272.34686 23.48125 271.45624Q24.48125 270.5656 24.8875 269.7375L25.903126 269.7375L25.903126 282.675ZM29.95 276.3156Q29.95 274.03436 30.41875 272.64374Q30.8875 271.2531 31.809376 270.5031Q32.746876 269.7375 34.153126 269.7375Q35.184376 269.7375 35.965626 270.15936Q36.746876 270.5656 37.246876 271.3625Q37.7625 272.14374 38.059376 273.28436Q38.35625 274.40936 38.35625 276.3156Q38.35625 278.58124 37.8875 279.9875Q37.41875 281.3781 36.48125 282.14374Q35.559376 282.89374 34.153126 282.89374Q32.278126 282.89374 31.215626 281.5656Q29.95 279.95624 29.95 276.3156ZM31.575 276.3156Q31.575 279.4875 32.309376 280.55Q33.059376 281.59686 34.153126 281.59686Q35.23125 281.59686 35.98125 280.55Q36.73125 279.4875 36.73125 276.3156Q36.73125 273.14374 35.98125 272.09686Q35.23125 271.05 34.1375 271.05Q33.04375 271.05 32.3875 271.97186Q31.575 273.14374 31.575 276.3156ZM40.246876 272.8781Q40.246876 271.5031 40.934376 270.53436Q41.6375 269.5656 42.95 269.5656Q44.16875 269.5656 44.965626 270.4406Q45.7625 271.3 45.7625 272.9875Q45.7625 274.6125 44.95 275.5031Q44.153126 276.3781 42.965626 276.3781Q41.809376 276.3781 41.028126 275.51874Q40.246876 274.64374 40.246876 272.8781ZM42.996876 270.65936Q42.403126 270.65936 42.0125 271.175Q41.621876 271.675 41.621876 273.03436Q41.621876 274.28436 42.0125 274.78436Q42.41875 275.28436 42.996876 275.28436Q43.590626 275.28436 43.98125 274.78436Q44.371876 274.26874 44.371876 272.925Q44.371876 271.675 43.98125 271.175Q43.590626 270.65936 42.996876 270.65936ZM43.0125 283.14374L50.059376 269.5656L51.340626 269.5656L44.309376 283.14374L43.0125 283.14374ZM48.575 279.64374Q48.575 278.26874 49.2625 277.3Q49.965626 276.33124 51.29375 276.33124Q52.5125 276.33124 53.29375 277.20624Q54.090626 278.0656 54.090626 279.7531Q54.090626 281.3781 53.29375 282.26874Q52.496876 283.14374 51.309376 283.14374Q50.1375 283.14374 49.35625 282.26874Q48.575 281.39374 48.575 279.64374ZM51.340626 277.425Q50.746876 277.425 50.35625 277.9406Q49.965626 278.4406 49.965626 279.8156Q49.965626 281.03436 50.35625 281.55Q50.746876 282.0656 51.325 282.0656Q51.934376 282.0656 52.325 281.55Q52.715626 281.03436 52.715626 279.6906Q52.715626 278.4406 52.325 277.9406Q51.934376 277.425 51.340626 277.425Z" fill-rule="nonzero"/><path fill="#000000" d="M28.2625 222.53438L28.2625 224.05L19.746876 224.05Q19.73125 223.47188 19.934376 222.95625Q20.2625 222.08125 20.965626 221.2375Q21.684376 220.39375 23.04375 219.28438Q25.1375 217.56563 25.871876 216.56563Q26.621876 215.55 26.621876 214.65938Q26.621876 213.70625 25.95 213.06563Q25.278126 212.425 24.2 212.425Q23.04375 212.425 22.35625 213.1125Q21.684376 213.8 21.66875 215.00313L20.04375 214.83125Q20.215626 213.01875 21.29375 212.06563Q22.3875 211.1125 24.23125 211.1125Q26.075 211.1125 27.153126 212.14375Q28.246876 213.175 28.246876 214.69063Q28.246876 215.45625 27.91875 216.20625Q27.60625 216.95625 26.871876 217.78438Q26.1375 218.6125 24.434376 220.05Q23.0125 221.25313 22.60625 221.675Q22.2 222.09688 21.95 222.53438L28.2625 222.53438ZM29.95 217.69063Q29.95 215.40938 30.41875 214.01875Q30.8875 212.62813 31.809376 211.87813Q32.746876 211.1125 34.153126 211.1125Q35.184376 211.1125 35.965626 211.53438Q36.746876 211.94063 37.246876 212.7375Q37.7625 213.51875 38.059376 214.65938Q38.35625 215.78438 38.35625 217.69063Q38.35625 219.95625 37.8875 221.3625Q37.41875 222.75313 36.48125 223.51875Q35.559376 224.26875 34.153126 224.26875Q32.278126 224.26875 31.215626 222.94063Q29.95 221.33125 29.95 217.69063ZM31.575 217.69063Q31.575 220.8625 32.309376 221.925Q33.059376 222.97188 34.153126 222.97188Q35.23125 222.97188 35.98125 221.925Q36.73125 220.8625 36.73125 217.69063Q36.73125 214.51875 35.98125 213.47188Q35.23125 212.425 34.1375 212.425Q33.04375 212.425 32.3875 213.34688Q31.575 214.51875 31.575 217.69063ZM40.246876 214.25313Q40.246876 212.87813 40.934376 211.90938Q41.6375 210.94063 42.95 210.94063Q44.16875 210.94063 44.965626 211.81563Q45.7625 212.675 45.7625 214.3625Q45.7625 215.9875 44.95 216.87813Q44.153126 217.75313 42.965626 217.75313Q41.809376 217.75313 41.028126 216.89375Q40.246876 216.01875 40.246876 214.25313ZM42.996876 212.03438Q42.403126 212.03438 42.0125 212.55Q41.621876 213.05 41.621876 214.40938Q41.621876 215.65938 42.0125 216.15938Q42.41875 216.65938 42.996876 216.65938Q43.590626 216.65938 43.98125 216.15938Q44.371876 215.64375 44.371876 214.3Q44.371876 213.05 43.98125 212.55Q43.590626 212.03438 42.996876 212.03438ZM43.0125 224.51875L50.059376 210.94063L51.340626 210.94063L44.309376 224.51875L43.0125 224.51875ZM48.575 221.01875Q48.575 219.64375 49.2625 218.675Q49.965626 217.70625 51.29375 217.70625Q52.5125 217.70625 53.29375 218.58125Q54.090626 219.44063 54.090626 221.12813Q54.090626 222.75313 53.29375 223.64375Q52.496876 224.51875 51.309376 224.51875Q50.1375 224.51875 49.35625 223.64375Q48.575 222.76875 48.575 221.01875ZM51.340626 218.8Q50.746876 218.8 50.35625 219.31563Q49.965626 219.81563 49.965626 221.19063Q49.965626 222.40938 50.35625 222.925Q50.746876 223.44063 51.325 223.44063Q51.934376 223.44063 52.325 222.925Q52.715626 222.40938 52.715626 221.06563Q52.715626 219.81563 52.325 219.31563Q51.934376 218.8 51.340626 218.8Z" fill-rule="nonzero"/><path fill="#000000" d="M19.95 162.01875L21.54375 161.81563Q21.809376 163.15938 22.465626 163.75313Q23.121876 164.34688 24.059376 164.34688Q25.184376 164.34688 25.95 163.58125Q26.715626 162.8 26.715626 161.65938Q26.715626 160.56563 25.996876 159.8625Q25.29375 159.14375 24.2 159.14375Q23.746876 159.14375 23.075 159.33125L23.246876 157.94063Q23.403126 157.95625 23.5125 157.95625Q24.5125 157.95625 25.325 157.425Q26.1375 156.89375 26.1375 155.8Q26.1375 154.925 25.54375 154.3625Q24.95 153.78438 24.028126 153.78438Q23.10625 153.78438 22.48125 154.3625Q21.871876 154.94063 21.7 156.1125L20.121876 155.83125Q20.403126 154.2375 21.434376 153.3625Q22.465626 152.4875 23.996876 152.4875Q25.04375 152.4875 25.934376 152.94063Q26.825 153.39375 27.29375 154.175Q27.7625 154.95625 27.7625 155.83125Q27.7625 156.675 27.309376 157.3625Q26.871876 158.03438 25.98125 158.44063Q27.121876 158.70625 27.746876 159.55Q28.3875 160.37813 28.3875 161.6125Q28.3875 163.3 27.153126 164.4875Q25.934376 165.65938 24.059376 165.65938Q22.35625 165.65938 21.23125 164.64375Q20.121876 163.62813 19.95 162.01875ZM29.95 159.06563Q29.95 156.78438 30.41875 155.39375Q30.8875 154.00313 31.809376 153.25313Q32.746876 152.4875 34.153126 152.4875Q35.184376 152.4875 35.965626 152.90938Q36.746876 153.31563 37.246876 154.1125Q37.7625 154.89375 38.059376 156.03438Q38.35625 157.15938 38.35625 159.06563Q38.35625 161.33125 37.8875 162.7375Q37.41875 164.12813 36.48125 164.89375Q35.559376 165.64375 34.153126 165.64375Q32.278126 165.64375 31.215626 164.31563Q29.95 162.70625 29.95 159.06563ZM31.575 159.06563Q31.575 162.2375 32.309376 163.3Q33.059376 164.34688 34.153126 164.34688Q35.23125 164.34688 35.98125 163.3Q36.73125 162.2375 36.73125 159.06563Q36.73125 155.89375 35.98125 154.84688Q35.23125 153.8 34.1375 153.8Q33.04375 153.8 32.3875 154.72188Q31.575 155.89375 31.575 159.06563ZM40.246876 155.62813Q40.246876 154.25313 40.934376 153.28438Q41.6375 152.31563 42.95 152.31563Q44.16875 152.31563 44.965626 153.19063Q45.7625 154.05 45.7625 155.7375Q45.7625 157.3625 44.95 158.25313Q44.153126 159.12813 42.965626 159.12813Q41.809376 159.12813 41.028126 158.26875Q40.246876 157.39375 40.246876 155.62813ZM42.996876 153.40938Q42.403126 153.40938 42.0125 153.925Q41.621876 154.425 41.621876 155.78438Q41.621876 157.03438 42.0125 157.53438Q42.41875 158.03438 42.996876 158.03438Q43.590626 158.03438 43.98125 157.53438Q44.371876 157.01875 44.371876 155.675Q44.371876 154.425 43.98125 153.925Q43.590626 153.40938 42.996876 153.40938ZM43.0125 165.89375L50.059376 152.31563L51.340626 152.31563L44.309376 165.89375L43.0125 165.89375ZM48.575 162.39375Q48.575 161.01875 49.2625 160.05Q49.965626 159.08125 51.29375 159.08125Q52.5125 159.08125 53.29375 159.95625Q54.090626 160.81563 54.090626 162.50313Q54.090626 164.12813 53.29375 165.01875Q52.496876 165.89375 51.309376 165.89375Q50.1375 165.89375 49.35625 165.01875Q48.575 164.14375 48.575 162.39375ZM51.340626 160.175Q50.746876 160.175 50.35625 160.69063Q49.965626 161.19063 49.965626 162.56563Q49.965626 163.78438 50.35625 164.3Q50.746876 164.81563 51.325 164.81563Q51.934376 164.81563 52.325 164.3Q52.715626 163.78438 52.715626 162.44063Q52.715626 161.19063 52.325 160.69063Q51.934376 160.175 51.340626 160.175Z" fill-rule="nonzero"/><path fill="#000000" d="M25.0125 106.8L25.0125 103.72188L19.434376 103.72188L19.434376 102.26875L25.309376 93.90938L26.60625 93.90938L26.60625 102.26875L28.340626 102.26875L28.340626 103.72188L26.60625 103.72188L26.60625 106.8L25.0125 106.8ZM25.0125 102.26875L25.0125 96.45625L20.98125 102.26875L25.0125 102.26875ZM29.95 100.44063Q29.95 98.15938 30.41875 96.76875Q30.8875 95.37813 31.809376 94.62813Q32.746876 93.8625 34.153126 93.8625Q35.184376 93.8625 35.965626 94.28438Q36.746876 94.69063 37.246876 95.4875Q37.7625 96.26875 38.059376 97.40938Q38.35625 98.53438 38.35625 100.44063Q38.35625 102.70625 37.8875 104.1125Q37.41875 105.50313 36.48125 106.26875Q35.559376 107.01875 34.153126 107.01875Q32.278126 107.01875 31.215626 105.69063Q29.95 104.08125 29.95 100.44063ZM31.575 100.44063Q31.575 103.6125 32.309376 104.675Q33.059376 105.72188 34.153126 105.72188Q35.23125 105.72188 35.98125 104.675Q36.73125 103.6125 36.73125 100.44063Q36.73125 97.26875 35.98125 96.22188Q35.23125 95.175 34.1375 95.175Q33.04375 95.175 32.3875 96.09688Q31.575 97.26875 31.575 100.44063ZM40.246876 97.00313Q40.246876 95.62813 40.934376 94.65938Q41.6375 93.69063 42.95 93.69063Q44.16875 93.69063 44.965626 94.56563Q45.7625 95.425 45.7625 97.1125Q45.7625 98.7375 44.95 99.62813Q44.153126 100.50313 42.965626 100.50313Q41.809376 100.50313 41.028126 99.64375Q40.246876 98.76875 40.246876 97.00313ZM42.996876 94.78438Q42.403126 94.78438 42.0125 95.3Q41.621876 95.8 41.621876 97.15938Q41.621876 98.40938 42.0125 98.90938Q42.41875 99.40938 42.996876 99.40938Q43.590626 99.40938 43.98125 98.90938Q44.371876 98.39375 44.371876 97.05Q44.371876 95.8 43.98125 95.3Q43.590626 94.78438 42.996876 94.78438ZM43.0125 107.26875L50.059376 93.69063L51.340626 93.69063L44.309376 107.26875L43.0125 107.26875ZM48.575 103.76875Q48.575 102.39375 49.2625 101.425Q49.965626 100.45625 51.29375 100.45625Q52.5125 100.45625 53.29375 101.33125Q54.090626 102.19063 54.090626 103.87813Q54.090626 105.50313 53.29375 106.39375Q52.496876 107.26875 51.309376 107.26875Q50.1375 107.26875 49.35625 106.39375Q48.575 105.51875 48.575 103.76875ZM51.340626 101.55Q50.746876 101.55 50.35625 102.06563Q49.965626 102.56563 49.965626 103.94063Q49.965626 105.15938 50.35625 105.675Q50.746876 106.19063 51.325 106.19063Q51.934376 106.19063 52.325 105.675Q52.715626 105.15938 52.715626 103.81563Q52.715626 102.56563 52.325 102.06563Q51.934376 101.55 51.340626 101.55Z" fill-rule="nonzero"/><path fill="#000000" d="M207.18784 355.7531L207.18784 354.2375L212.64096 354.22186L212.64096 359.0031Q211.39096 360.0031 210.04721 360.51874Q208.71909 361.01874 207.31284 361.01874Q205.40659 361.01874 203.85971 360.20624Q202.31284 359.39374 201.51596 357.8625Q200.71909 356.3156 200.71909 354.425Q200.71909 352.53436 201.50034 350.90936Q202.29721 349.28436 203.76596 348.4875Q205.25034 347.6906 207.17221 347.6906Q208.57846 347.6906 209.70346 348.14374Q210.82846 348.59686 211.46909 349.40936Q212.10971 350.22186 212.45346 351.51874L210.90659 351.9406Q210.62534 350.95624 210.18784 350.39374Q209.76596 349.83124 208.95346 349.5031Q208.15659 349.15936 207.18784 349.15936Q206.01596 349.15936 205.15659 349.51874Q204.31284 349.8625 203.78159 350.4406Q203.26596 351.01874 202.96909 351.72186Q202.48471 352.90936 202.48471 354.3156Q202.48471 356.03436 203.07846 357.20624Q203.67221 358.3625 204.79721 358.925Q205.93784 359.4875 207.20346 359.4875Q208.31284 359.4875 209.35971 359.0656Q210.42221 358.6281 210.96909 358.14374L210.96909 355.7531L207.18784 355.7531ZM213.73471 360.8L218.68784 347.90936L220.53159 347.90936L225.79721 360.8L223.85971 360.8L222.35971 356.89374L216.96909 356.89374L215.54721 360.8L213.73471 360.8ZM217.45346 355.5031L221.82846 355.5031L220.48471 351.9406Q219.85971 350.3156 219.56284 349.26874Q219.32846 350.5031 218.87534 351.72186L217.45346 355.5031ZM226.10971 360.8L226.10971 347.90936L228.67221 347.90936L231.71909 357.03436Q232.14096 358.3156 232.32846 358.9406Q232.54721 358.2375 233.01596 356.8781L236.10971 347.90936L238.39096 347.90936L238.39096 360.8L236.75034 360.8L236.75034 350.01874L233.01596 360.8L231.46909 360.8L227.75034 349.83124L227.75034 360.8L226.10971 360.8Z" fill-rule="nonzero"/><path fill="#000000" d="M433.6559 360.8L433.6559 347.90936L439.35904 347.90936Q441.0778 347.90936 441.9684 348.26874Q442.87466 348.6125 443.4059 349.4875Q443.9528 350.3625 443.9528 351.425Q443.9528 352.8 443.06216 353.7375Q442.17154 354.675 440.3278 354.9406Q440.99966 355.26874 441.3434 355.58124Q442.0934 356.26874 442.7653 357.3L444.99966 360.8L442.85904 360.8L441.1559 358.1125Q440.4059 356.95624 439.92154 356.34686Q439.43716 355.72186 439.04654 355.4875Q438.67154 355.2375 438.2809 355.14374Q437.98404 355.08124 437.3278 355.08124L435.35904 355.08124L435.35904 360.8L433.6559 360.8ZM435.35904 353.59686L439.0153 353.59686Q440.18716 353.59686 440.8434 353.3625Q441.49966 353.1125 441.8434 352.58124Q442.18716 352.05 442.18716 351.425Q442.18716 350.51874 441.5153 349.925Q440.85904 349.33124 439.43716 349.33124L435.35904 349.33124L435.35904 353.59686ZM446.62466 360.8L446.62466 347.90936L451.48404 347.90936Q452.7653 347.90936 453.43716 348.03436Q454.3903 348.1906 455.0309 348.64374Q455.67154 349.08124 456.06216 349.89374Q456.4528 350.6906 456.4528 351.64374Q456.4528 353.28436 455.4059 354.425Q454.35904 355.5656 451.6403 355.5656L448.3278 355.5656L448.3278 360.8L446.62466 360.8ZM448.3278 354.03436L451.6559 354.03436Q453.31216 354.03436 453.99966 353.425Q454.7028 352.8156 454.7028 351.6906Q454.7028 350.8781 454.29654 350.3156Q453.8903 349.7375 453.2184 349.55Q452.7809 349.4406 451.62466 349.4406L448.3278 349.4406L448.3278 354.03436ZM457.31216 360.8L462.29654 354.08124L457.9059 347.90936L459.93716 347.90936L462.2653 351.22186Q462.99966 352.2531 463.31216 352.8Q463.73404 352.09686 464.3278 351.33124L466.92154 347.90936L468.7809 347.90936L464.24966 353.9875L469.12466 360.8L467.0153 360.8L463.7809 356.20624Q463.49966 355.8 463.2184 355.34686Q462.7809 356.05 462.5934 356.3156L459.35904 360.8L457.31216 360.8Z" fill-rule="nonzero"/><path fill="#4285f4" d="M191.0 61.5C191.0 60.947716 191.44771 60.5 192.0 60.5L202.0 60.5C202.55229 60.5 203.0 60.947716 203.0 61.5L203.0 71.5C203.0 72.052284 202.55229 72.5 202.0 72.5L192.0 72.5C191.44771 72.5 191.0 72.052284 191.0 71.5Z" fill-rule="nonzero"/><path fill="#000000" d="M212.375 73.0L212.375 60.109375L214.125 60.109375L220.89062 70.234375L220.89062 60.109375L222.51562 60.109375L222.51562 73.0L220.78125 73.0L214.0 62.875L214.0 73.0L212.375 73.0ZM231.28125 71.84375Q230.40625 72.59375 229.57812 72.90625Q228.76562 73.21875 227.84375 73.21875Q226.29688 73.21875 225.46875 72.46875Q224.65625 71.703125 224.65625 70.53125Q224.65625 69.859375 224.96875 69.296875Q225.28125 68.71875 225.78125 68.375Q226.28125 68.03125 226.92188 67.859375Q227.39062 67.734375 228.32812 67.625Q230.23438 67.390625 231.14062 67.078125Q231.15625 66.75 231.15625 66.65625Q231.15625 65.703125 230.70312 65.296875Q230.09375 64.765625 228.90625 64.765625Q227.78125 64.765625 227.25 65.15625Q226.71875 65.546875 226.46875 66.546875L224.92188 66.328125Q225.14062 65.328125 225.60938 64.71875Q226.09375 64.109375 227.0 63.78125Q227.92188 63.453125 229.14062 63.453125Q230.32812 63.453125 231.07812 63.734375Q231.82812 64.015625 232.17188 64.453125Q232.53125 64.875 232.67188 65.515625Q232.75 65.921875 232.75 66.984375L232.75 69.09375Q232.75 71.296875 232.84375 71.890625Q232.95312 72.46875 233.25 73.0L231.59375 73.0Q231.34375 72.5 231.28125 71.84375ZM231.14062 68.3125Q230.28125 68.671875 228.5625 68.90625Q227.59375 69.046875 227.1875 69.234375Q226.78125 69.40625 226.5625 69.75Q226.34375 70.078125 226.34375 70.5Q226.34375 71.125 226.8125 71.546875Q227.29688 71.96875 228.21875 71.96875Q229.14062 71.96875 229.84375 71.578125Q230.5625 71.171875 230.89062 70.484375Q231.14062 69.9375 231.14062 68.890625L231.14062 68.3125ZM238.64062 71.578125L238.875 72.984375Q238.20312 73.125 237.67188 73.125Q236.8125 73.125 236.32812 72.859375Q235.85938 72.578125 235.67188 72.140625Q235.48438 71.6875 235.48438 70.265625L235.48438 64.890625L234.3125 64.890625L234.3125 63.671875L235.48438 63.671875L235.48438 61.359375L237.04688 60.40625L237.04688 63.671875L238.64062 63.671875L238.64062 64.890625L237.04688 64.890625L237.04688 70.359375Q237.04688 71.03125 237.125 71.234375Q237.21875 71.421875 237.40625 71.53125Q237.59375 71.640625 237.95312 71.640625Q238.20312 71.640625 238.64062 71.578125ZM246.29688 73.0L246.29688 71.625Q245.21875 73.21875 243.34375 73.21875Q242.51562 73.21875 241.79688 72.90625Q241.07812 72.578125 240.73438 72.109375Q240.39062 71.625 240.25 70.921875Q240.15625 70.453125 240.15625 69.453125L240.15625 63.671875L241.73438 63.671875L241.73438 68.84375Q241.73438 70.078125 241.82812 70.515625Q241.98438 71.140625 242.46875 71.5Q242.95312 71.84375 243.65625 71.84375Q244.375 71.84375 245.0 71.484375Q245.625 71.125 245.875 70.5Q246.14062 69.859375 246.14062 68.671875L246.14062 63.671875L247.71875 63.671875L247.71875 73.0L246.29688 73.0ZM250.17188 73.0L250.17188 63.671875L251.59375 63.671875L251.59375 65.078125Q252.14062 64.09375 252.59375 63.78125Q253.0625 63.453125 253.60938 63.453125Q254.42188 63.453125 255.23438 63.96875L254.70312 65.4375Q254.10938 65.09375 253.53125 65.09375Q253.01562 65.09375 252.59375 65.40625Q252.1875 65.71875 252.01562 66.265625Q251.75 67.109375 251.75 68.109375L251.75 73.0L250.17188 73.0ZM262.28125 71.84375Q261.40625 72.59375 260.57812 72.90625Q259.76562 73.21875 258.84375 73.21875Q257.29688 73.21875 256.46875 72.46875Q255.65625 71.703125 255.65625 70.53125Q255.65625 69.859375 255.96875 69.296875Q256.28125 68.71875 256.78125 68.375Q257.28125 68.03125 257.92188 67.859375Q258.39062 67.734375 259.32812 67.625Q261.23438 67.390625 262.14062 67.078125Q262.15625 66.75 262.15625 66.65625Q262.15625 65.703125 261.70312 65.296875Q261.09375 64.765625 259.90625 64.765625Q258.78125 64.765625 258.25 65.15625Q257.71875 65.546875 257.46875 66.546875L255.92188 66.328125Q256.14062 65.328125 256.60938 64.71875Q257.09375 64.109375 258.0 63.78125Q258.92188 63.453125 260.14062 63.453125Q261.32812 63.453125 262.07812 63.734375Q262.82812 64.015625 263.17188 64.453125Q263.53125 64.875 263.67188 65.515625Q263.75 65.921875 263.75 66.984375L263.75 69.09375Q263.75 71.296875 263.84375 71.890625Q263.95312 72.46875 264.25 73.0L262.59375 73.0Q262.34375 72.5 262.28125 71.84375ZM262.14062 68.3125Q261.28125 68.671875 259.5625 68.90625Q258.59375 69.046875 258.1875 69.234375Q257.78125 69.40625 257.5625 69.75Q257.34375 70.078125 257.34375 70.5Q257.34375 71.125 257.8125 71.546875Q258.29688 71.96875 259.21875 71.96875Q260.14062 71.96875 260.84375 71.578125Q261.5625 71.171875 261.89062 70.484375Q262.14062 69.9375 262.14062 68.890625L262.14062 68.3125ZM266.15625 73.0L266.15625 60.109375L267.73438 60.109375L267.73438 73.0L266.15625 73.0ZM270.1875 73.0L270.1875 63.671875L271.60938 63.671875L271.60938 65.0Q272.64062 63.453125 274.57812 63.453125Q275.42188 63.453125 276.125 63.765625Q276.84375 64.0625 277.1875 64.5625Q277.54688 65.046875 277.6875 65.71875Q277.76562 66.15625 277.76562 67.265625L277.76562 73.0L276.1875 73.0L276.1875 67.328125Q276.1875 66.359375 276.0 65.875Q275.82812 65.390625 275.34375 65.109375Q274.875 64.828125 274.25 64.828125Q273.23438 64.828125 272.5 65.46875Q271.76562 66.109375 271.76562 67.90625L271.76562 73.0L270.1875 73.0ZM286.57812 70.0L288.21875 70.203125Q287.82812 71.625 286.78125 72.421875Q285.73438 73.21875 284.10938 73.21875Q282.0625 73.21875 280.85938 71.953125Q279.65625 70.6875 279.65625 68.40625Q279.65625 66.0625 280.85938 64.765625Q282.07812 63.453125 284.01562 63.453125Q285.89062 63.453125 287.07812 64.734375Q288.26562 66.0 288.26562 68.3125Q288.26562 68.453125 288.25 68.734375L281.29688 68.734375Q281.375 70.28125 282.15625 71.09375Q282.95312 71.90625 284.10938 71.90625Q284.98438 71.90625 285.59375 71.453125Q286.21875 71.0 286.57812 70.0ZM281.375 67.4375L286.59375 67.4375Q286.48438 66.265625 286.0 65.671875Q285.23438 64.75 284.03125 64.75Q282.95312 64.75 282.20312 65.484375Q281.46875 66.21875 281.375 67.4375ZM289.54688 70.21875L291.125 69.96875Q291.25 70.90625 291.84375 71.40625Q292.45312 71.90625 293.53125 71.90625Q294.625 71.90625 295.15625 71.46875Q295.6875 71.015625 295.6875 70.421875Q295.6875 69.890625 295.21875 69.578125Q294.89062 69.375 293.59375 69.046875Q291.85938 68.609375 291.1875 68.296875Q290.51562 67.96875 290.15625 67.40625Q289.8125 66.828125 289.8125 66.140625Q289.8125 65.515625 290.09375 64.984375Q290.39062 64.453125 290.875 64.109375Q291.25 63.828125 291.89062 63.640625Q292.53125 63.453125 293.25 63.453125Q294.35938 63.453125 295.1875 63.78125Q296.01562 64.09375 296.40625 64.640625Q296.8125 65.171875 296.95312 66.078125L295.40625 66.28125Q295.29688 65.5625 294.79688 65.15625Q294.29688 64.75 293.375 64.75Q292.28125 64.75 291.8125 65.109375Q291.34375 65.46875 291.34375 65.953125Q291.34375 66.265625 291.54688 66.515625Q291.73438 66.765625 292.14062 66.9375Q292.39062 67.015625 293.54688 67.34375Q295.21875 67.78125 295.875 68.078125Q296.54688 68.359375 296.92188 68.90625Q297.3125 69.453125 297.3125 70.25Q297.3125 71.046875 296.84375 71.75Q296.39062 72.453125 295.51562 72.84375Q294.64062 73.21875 293.54688 73.21875Q291.71875 73.21875 290.76562 72.46875Q289.8125 71.703125 289.54688 70.21875ZM298.54688 70.21875L300.125 69.96875Q300.25 70.90625 300.84375 71.40625Q301.45312 71.90625 302.53125 71.90625Q303.625 71.90625 304.15625 71.46875Q304.6875 71.015625 304.6875 70.421875Q304.6875 69.890625 304.21875 69.578125Q303.89062 69.375 302.59375 69.046875Q300.85938 68.609375 300.1875 68.296875Q299.51562 67.96875 299.15625 67.40625Q298.8125 66.828125 298.8125 66.140625Q298.8125 65.515625 299.09375 64.984375Q299.39062 64.453125 299.875 64.109375Q300.25 63.828125 300.89062 63.640625Q301.53125 63.453125 302.25 63.453125Q303.35938 63.453125 304.1875 63.78125Q305.01562 64.09375 305.40625 64.640625Q305.8125 65.171875 305.95312 66.078125L304.40625 66.28125Q304.29688 65.5625 303.79688 65.15625Q303.29688 64.75 302.375 64.75Q301.28125 64.75 300.8125 65.109375Q300.34375 65.46875 300.34375 65.953125Q300.34375 66.265625 300.54688 66.515625Q300.73438 66.765625 301.14062 66.9375Q301.39062 67.015625 302.54688 67.34375Q304.21875 67.78125 304.875 68.078125Q305.54688 68.359375 305.92188 68.90625Q306.3125 69.453125 306.3125 70.25Q306.3125 71.046875 305.84375 71.75Q305.39062 72.453125 304.51562 72.84375Q303.64062 73.21875 302.54688 73.21875Q300.71875 73.21875 299.76562 72.46875Q298.8125 71.703125 298.54688 70.21875Z" fill-rule="nonzero"/><path fill="#ea4335" d="M323.0 61.5C323.0 60.947716 323.44772 60.5 324.0 60.5L334.0 60.5C334.55228 60.5 335.0 60.947716 335.0 61.5L335.0 71.5C335.0 72.052284 334.55228 72.5 334.0 72.5L324.0 72.5C323.44772 72.5 323.0 72.052284 323.0 71.5Z" fill-rule="nonzero"/><path fill="#000000" d="M344.67188 73.0L344.67188 60.109375L346.39062 60.109375L346.39062 73.0L344.67188 73.0ZM348.1875 73.0L348.1875 63.671875L349.60938 63.671875L349.60938 65.0Q350.64062 63.453125 352.57812 63.453125Q353.42188 63.453125 354.125 63.765625Q354.84375 64.0625 355.1875 64.5625Q355.54688 65.046875 355.6875 65.71875Q355.76562 66.15625 355.76562 67.265625L355.76562 73.0L354.1875 73.0L354.1875 67.328125Q354.1875 66.359375 354.0 65.875Q353.82812 65.390625 353.34375 65.109375Q352.875 64.828125 352.25 64.828125Q351.23438 64.828125 350.5 65.46875Q349.76562 66.109375 349.76562 67.90625L349.76562 73.0L348.1875 73.0ZM361.64062 71.578125L361.875 72.984375Q361.20312 73.125 360.67188 73.125Q359.8125 73.125 359.32812 72.859375Q358.85938 72.578125 358.67188 72.140625Q358.48438 71.6875 358.48438 70.265625L358.48438 64.890625L357.3125 64.890625L357.3125 63.671875L358.48438 63.671875L358.48438 61.359375L360.04688 60.40625L360.04688 63.671875L361.64062 63.671875L361.64062 64.890625L360.04688 64.890625L360.04688 70.359375Q360.04688 71.03125 360.125 71.234375Q360.21875 71.421875 360.40625 71.53125Q360.59375 71.640625 360.95312 71.640625Q361.20312 71.640625 361.64062 71.578125ZM369.57812 70.0L371.21875 70.203125Q370.82812 71.625 369.78125 72.421875Q368.73438 73.21875 367.10938 73.21875Q365.0625 73.21875 363.85938 71.953125Q362.65625 70.6875 362.65625 68.40625Q362.65625 66.0625 363.85938 64.765625Q365.07812 63.453125 367.01562 63.453125Q368.89062 63.453125 370.07812 64.734375Q371.26562 66.0 371.26562 68.3125Q371.26562 68.453125 371.25 68.734375L364.29688 68.734375Q364.375 70.28125 365.15625 71.09375Q365.95312 71.90625 367.10938 71.90625Q367.98438 71.90625 368.59375 71.453125Q369.21875 71.0 369.57812 70.0ZM364.375 67.4375L369.59375 67.4375Q369.48438 66.265625 369.0 65.671875Q368.23438 64.75 367.03125 64.75Q365.95312 64.75 365.20312 65.484375Q364.46875 66.21875 364.375 67.4375ZM373.15625 73.0L373.15625 60.109375L374.73438 60.109375L374.73438 73.0L373.15625 73.0ZM377.15625 73.0L377.15625 60.109375L378.73438 60.109375L378.73438 73.0L377.15625 73.0ZM381.20312 61.9375L381.20312 60.109375L382.78125 60.109375L382.78125 61.9375L381.20312 61.9375ZM381.20312 73.0L381.20312 63.671875L382.78125 63.671875L382.78125 73.0L381.20312 73.0ZM384.89062 73.78125L386.4375 74.0Q386.53125 74.71875 386.96875 75.046875Q387.5625 75.484375 388.57812 75.484375Q389.67188 75.484375 390.26562 75.03125Q390.875 74.59375 391.07812 73.8125Q391.20312 73.328125 391.20312 71.78125Q390.15625 73.0 388.60938 73.0Q386.6875 73.0 385.625 71.609375Q384.57812 70.21875 384.57812 68.28125Q384.57812 66.9375 385.0625 65.8125Q385.54688 64.6875 386.46875 64.078125Q387.39062 63.453125 388.625 63.453125Q390.28125 63.453125 391.34375 64.796875L391.34375 63.671875L392.8125 63.671875L392.8125 71.734375Q392.8125 73.921875 392.35938 74.828125Q391.92188 75.734375 390.95312 76.25Q390.0 76.78125 388.59375 76.78125Q386.92188 76.78125 385.89062 76.03125Q384.85938 75.28125 384.89062 73.78125ZM386.20312 68.171875Q386.20312 70.0 386.9375 70.84375Q387.67188 71.6875 388.76562 71.6875Q389.85938 71.6875 390.59375 70.859375Q391.32812 70.015625 391.32812 68.21875Q391.32812 66.5 390.5625 65.640625Q389.8125 64.765625 388.73438 64.765625Q387.6875 64.765625 386.9375 65.625Q386.20312 66.484375 386.20312 68.171875ZM395.20312 61.9375L395.20312 60.109375L396.78125 60.109375L396.78125 61.9375L395.20312 61.9375ZM395.20312 73.0L395.20312 63.671875L396.78125 63.671875L396.78125 73.0L395.20312 73.0ZM400.64062 73.0L399.17188 73.0L399.17188 60.109375L400.76562 60.109375L400.76562 64.71875Q401.76562 63.453125 403.3125 63.453125Q404.17188 63.453125 404.9375 63.8125Q405.71875 64.15625 406.20312 64.78125Q406.70312 65.40625 406.98438 66.296875Q407.26562 67.1875 407.26562 68.1875Q407.26562 70.59375 406.07812 71.90625Q404.90625 73.21875 403.23438 73.21875Q401.59375 73.21875 400.64062 71.828125L400.64062 73.0ZM400.625 68.265625Q400.625 69.9375 401.07812 70.6875Q401.82812 71.90625 403.10938 71.90625Q404.14062 71.90625 404.89062 71.015625Q405.65625 70.109375 405.65625 68.328125Q405.65625 66.5 404.92188 65.625Q404.20312 64.75 403.17188 64.75Q402.14062 64.75 401.375 65.65625Q400.625 66.5625 400.625 68.265625ZM409.20312 61.9375L409.20312 60.109375L410.78125 60.109375L410.78125 61.9375L409.20312 61.9375ZM409.20312 73.0L409.20312 63.671875L410.78125 63.671875L410.78125 73.0L409.20312 73.0ZM413.15625 73.0L413.15625 60.109375L414.73438 60.109375L414.73438 73.0L413.15625 73.0ZM417.20312 61.9375L417.20312 60.109375L418.78125 60.109375L418.78125 61.9375L417.20312 61.9375ZM417.20312 73.0L417.20312 63.671875L418.78125 63.671875L418.78125 73.0L417.20312 73.0ZM424.64062 71.578125L424.875 72.984375Q424.20312 73.125 423.67188 73.125Q422.8125 73.125 422.32812 72.859375Q421.85938 72.578125 421.67188 72.140625Q421.48438 71.6875 421.48438 70.265625L421.48438 64.890625L420.3125 64.890625L420.3125 63.671875L421.48438 63.671875L421.48438 61.359375L423.04688 60.40625L423.04688 63.671875L424.64062 63.671875L424.64062 64.890625L423.04688 64.890625L423.04688 70.359375Q423.04688 71.03125 423.125 71.234375Q423.21875 71.421875 423.40625 71.53125Q423.59375 71.640625 423.95312 71.640625Q424.20312 71.640625 424.64062 71.578125ZM426.10938 76.59375L425.9375 75.109375Q426.45312 75.25 426.84375 75.25Q427.375 75.25 427.6875 75.078125Q428.0 74.90625 428.20312 74.578125Q428.35938 74.34375 428.6875 73.40625Q428.73438 73.265625 428.82812 73.015625L425.29688 63.671875L427.0 63.671875L428.9375 69.078125Q429.3125 70.09375 429.60938 71.234375Q429.89062 70.140625 430.26562 69.109375L432.26562 63.671875L433.84375 63.671875L430.29688 73.15625Q429.71875 74.703125 429.40625 75.28125Q428.98438 76.0625 428.4375 76.421875Q427.89062 76.78125 427.14062 76.78125Q426.67188 76.78125 426.10938 76.59375Z" fill-rule="nonzero"/><path fill="#000000" d="M20.66875 38.2L20.66875 23.8875L26.04375 23.8875Q27.684376 23.8875 28.66875 24.325Q29.653126 24.746876 30.215626 25.653126Q30.778126 26.559376 30.778126 27.54375Q30.778126 28.465626 30.278126 29.278126Q29.79375 30.090626 28.778126 30.575Q30.075 30.965626 30.778126 31.8875Q31.48125 32.79375 31.48125 34.04375Q31.48125 35.059376 31.04375 35.91875Q30.621876 36.778126 29.996876 37.246876Q29.371876 37.715626 28.434376 37.965626Q27.496876 38.2 26.121876 38.2L20.66875 38.2ZM22.559376 29.903126L25.653126 29.903126Q26.91875 29.903126 27.465626 29.73125Q28.184376 29.5125 28.54375 29.028126Q28.91875 28.528126 28.91875 27.7625Q28.91875 27.059376 28.575 26.5125Q28.23125 25.965626 27.590626 25.778126Q26.965626 25.575 25.41875 25.575L22.559376 25.575L22.559376 29.903126ZM22.559376 36.5125L26.121876 36.5125Q27.04375 36.5125 27.41875 36.434376Q28.075 36.325 28.5125 36.059376Q28.95 35.778126 29.23125 35.2625Q29.5125 34.73125 29.5125 34.04375Q29.5125 33.246876 29.10625 32.653126Q28.7 32.059376 27.965626 31.825Q27.23125 31.590626 25.871876 31.590626L22.559376 31.590626L22.559376 36.5125ZM33.528126 25.903126L33.528126 23.8875L35.29375 23.8875L35.29375 25.903126L33.528126 25.903126ZM33.528126 38.2L33.528126 27.825L35.29375 27.825L35.29375 38.2L33.528126 38.2ZM37.5125 38.2L37.5125 27.825L39.10625 27.825L39.10625 29.309376Q40.246876 27.590626 42.403126 27.590626Q43.340626 27.590626 44.121876 27.934376Q44.91875 28.2625 45.309376 28.809376Q45.7 29.35625 45.85625 30.10625Q45.95 30.60625 45.95 31.825L45.95 38.2L44.184376 38.2L44.184376 31.8875Q44.184376 30.809376 43.98125 30.278126Q43.778126 29.746876 43.246876 29.434376Q42.73125 29.121876 42.028126 29.121876Q40.903126 29.121876 40.090626 29.840626Q39.278126 30.54375 39.278126 32.528126L39.278126 38.2L37.5125 38.2ZM54.29375 36.91875Q53.309376 37.746876 52.403126 38.090626Q51.496876 38.434376 50.465626 38.434376Q48.7625 38.434376 47.840626 37.60625Q46.91875 36.7625 46.91875 35.465626Q46.91875 34.7 47.2625 34.075Q47.621876 33.45 48.184376 33.075Q48.746876 32.684376 49.45 32.48125Q49.965626 32.35625 51.0125 32.215626Q53.1375 31.965626 54.1375 31.621876Q54.153126 31.2625 54.153126 31.153126Q54.153126 30.090626 53.653126 29.6375Q52.98125 29.04375 51.653126 29.04375Q50.403126 29.04375 49.809376 29.48125Q49.23125 29.91875 48.95 31.028126L47.23125 30.79375Q47.465626 29.684376 47.996876 29.0125Q48.528126 28.325 49.54375 27.965626Q50.559376 27.590626 51.903126 27.590626Q53.23125 27.590626 54.059376 27.903126Q54.8875 28.215626 55.278126 28.7Q55.66875 29.16875 55.825 29.8875Q55.91875 30.340626 55.91875 31.5125L55.91875 33.85625Q55.91875 36.309376 56.028126 36.965626Q56.1375 37.60625 56.48125 38.2L54.6375 38.2Q54.371876 37.653126 54.29375 36.91875ZM54.1375 32.996876Q53.184376 33.3875 51.2625 33.653126Q50.184376 33.809376 49.73125 34.0125Q49.29375 34.2 49.04375 34.575Q48.79375 34.95 48.79375 35.41875Q48.79375 36.121876 49.325 36.590626Q49.85625 37.059376 50.8875 37.059376Q51.903126 37.059376 52.684376 36.621876Q53.48125 36.16875 53.85625 35.403126Q54.1375 34.79375 54.1375 33.6375L54.1375 32.996876ZM58.496876 38.2L58.496876 27.825L60.075 27.825L60.075 29.403126Q60.684376 28.29375 61.2 27.95Q61.715626 27.590626 62.325 27.590626Q63.215626 27.590626 64.1375 28.153126L63.528126 29.79375Q62.8875 29.403126 62.246876 29.403126Q61.66875 29.403126 61.2 29.7625Q60.746876 30.10625 60.54375 30.715626Q60.2625 31.653126 60.2625 32.7625L60.2625 38.2L58.496876 38.2ZM65.43437 42.2L65.24687 40.54375Q65.825 40.7 66.24687 40.7Q66.84062 40.7 67.18437 40.496876Q67.54375 40.309376 67.7625 39.965626Q67.93437 39.7 68.30937 38.653126Q68.35625 38.496876 68.46562 38.215626L64.52812 27.825L66.41875 27.825L68.575 33.840626Q68.99687 34.98125 69.325 36.23125Q69.6375 35.028126 70.04375 33.871876L72.2625 27.825L74.02812 27.825L70.075 38.371876Q69.45 40.090626 69.09062 40.73125Q68.62187 41.60625 68.0125 41.996876Q67.41875 42.403126 66.575 42.403126Q66.05937 42.403126 65.43437 42.2ZM81.5125 42.16875L81.5125 27.825L83.12187 27.825L83.12187 29.16875Q83.68437 28.3875 84.3875 27.996876Q85.10625 27.590626 86.12187 27.590626Q87.45 27.590626 88.46562 28.278126Q89.48125 28.965626 89.99687 30.215626Q90.52812 31.45 90.52812 32.934376Q90.52812 34.528126 89.95 35.809376Q89.3875 37.075 88.29375 37.7625Q87.2 38.434376 85.99687 38.434376Q85.12187 38.434376 84.41875 38.059376Q83.73125 37.684376 83.27812 37.121876L83.27812 42.16875L81.5125 42.16875ZM83.10625 33.075Q83.10625 35.075 83.91875 36.028126Q84.73125 36.98125 85.8875 36.98125Q87.05937 36.98125 87.8875 35.996876Q88.73125 35.0125 88.73125 32.91875Q88.73125 30.95 87.90312 29.965626Q87.09062 28.965626 85.96562 28.965626Q84.84062 28.965626 83.96562 30.028126Q83.10625 31.075 83.10625 33.075ZM92.49687 38.2L92.49687 27.825L94.075 27.825L94.075 29.403126Q94.68437 28.29375 95.2 27.95Q95.71562 27.590626 96.325 27.590626Q97.21562 27.590626 98.1375 28.153126L97.52812 29.79375Q96.8875 29.403126 96.24687 29.403126Q95.66875 29.403126 95.2 29.7625Q94.74687 30.10625 94.54375 30.715626Q94.2625 31.653126 94.2625 32.7625L94.2625 38.2L92.49687 38.2ZM106.62187 34.85625L108.43437 35.090626Q108.0125 36.66875 106.84062 37.559376Q105.68437 38.434376 103.87187 38.434376Q101.60625 38.434376 100.2625 37.04375Q98.93437 35.6375 98.93437 33.10625Q98.93437 30.48125 100.27812 29.04375Q101.62187 27.590626 103.77812 27.590626Q105.85625 27.590626 107.16875 29.0125Q108.49687 30.41875 108.49687 32.996876Q108.49687 33.153126 108.48125 33.465626L100.74687 33.465626Q100.84062 35.16875 101.71562 36.075Q102.59062 36.98125 103.8875 36.98125Q104.85625 36.98125 105.52812 36.48125Q106.21562 35.965626 106.62187 34.85625ZM100.84062 32.0125L106.6375 32.0125Q106.52812 30.715626 105.98125 30.059376Q105.1375 29.04375 103.79375 29.04375Q102.59062 29.04375 101.7625 29.85625Q100.93437 30.653126 100.84062 32.0125ZM110.93437 38.2L110.93437 29.2L109.3875 29.2L109.3875 27.825L110.93437 27.825L110.93437 26.73125Q110.93437 25.684376 111.12187 25.16875Q111.37187 24.48125 112.0125 24.059376Q112.65312 23.6375 113.80937 23.6375Q114.55937 23.6375 115.45 23.809376L115.18437 25.340626Q114.6375 25.246876 114.15312 25.246876Q113.35625 25.246876 113.0125 25.590626Q112.68437 25.934376 112.68437 26.871876L112.68437 27.825L114.71562 27.825L114.71562 29.2L112.68437 29.2L112.68437 38.2L110.93437 38.2ZM123.62187 34.85625L125.43437 35.090626Q125.0125 36.66875 123.84062 37.559376Q122.68437 38.434376 120.87187 38.434376Q118.60625 38.434376 117.2625 37.04375Q115.93437 35.6375 115.93437 33.10625Q115.93437 30.48125 117.27812 29.04375Q118.62187 27.590626 120.77812 27.590626Q122.85625 27.590626 124.16875 29.0125Q125.49687 30.41875 125.49687 32.996876Q125.49687 33.153126 125.48125 33.465626L117.74687 33.465626Q117.84062 35.16875 118.71562 36.075Q119.59062 36.98125 120.8875 36.98125Q121.85625 36.98125 122.52812 36.48125Q123.21562 35.965626 123.62187 34.85625ZM117.84062 32.0125L123.6375 32.0125Q123.52812 30.715626 122.98125 30.059376Q122.1375 29.04375 120.79375 29.04375Q119.59062 29.04375 118.7625 29.85625Q117.93437 30.653126 117.84062 32.0125ZM127.49687 38.2L127.49687 27.825L129.075 27.825L129.075 29.403126Q129.68437 28.29375 130.2 27.95Q130.71562 27.590626 131.325 27.590626Q132.21562 27.590626 133.1375 28.153126L132.52812 29.79375Q131.8875 29.403126 131.24687 29.403126Q130.66875 29.403126 130.2 29.7625Q129.74687 30.10625 129.54375 30.715626Q129.2625 31.653126 129.2625 32.7625L129.2625 38.2L127.49687 38.2ZM141.62187 34.85625L143.43437 35.090626Q143.0125 36.66875 141.84062 37.559376Q140.68437 38.434376 138.87187 38.434376Q136.60625 38.434376 135.2625 37.04375Q133.93437 35.6375 133.93437 33.10625Q133.93437 30.48125 135.27812 29.04375Q136.62187 27.590626 138.77812 27.590626Q140.85625 27.590626 142.16875 29.0125Q143.49687 30.41875 143.49687 32.996876Q143.49687 33.153126 143.48125 33.465626L135.74687 33.465626Q135.84062 35.16875 136.71562 36.075Q137.59062 36.98125 138.8875 36.98125Q139.85625 36.98125 140.52812 36.48125Q141.21562 35.965626 141.62187 34.85625ZM135.84062 32.0125L141.6375 32.0125Q141.52812 30.715626 140.98125 30.059376Q140.1375 29.04375 138.79375 29.04375Q137.59062 29.04375 136.7625 29.85625Q135.93437 30.653126 135.84062 32.0125ZM145.5125 38.2L145.5125 27.825L147.10625 27.825L147.10625 29.309376Q148.24687 27.590626 150.40312 27.590626Q151.34062 27.590626 152.12187 27.934376Q152.91875 28.2625 153.30937 28.809376Q153.7 29.35625 153.85625 30.10625Q153.95 30.60625 153.95 31.825L153.95 38.2L152.18437 38.2L152.18437 31.8875Q152.18437 30.809376 151.98125 30.278126Q151.77812 29.746876 151.24687 29.434376Q150.73125 29.121876 150.02812 29.121876Q148.90312 29.121876 148.09062 29.840626Q147.27812 30.54375 147.27812 32.528126L147.27812 38.2L145.5125 38.2ZM162.29375 34.403126L164.0125 34.621876Q163.73125 36.41875 162.55937 37.434376Q161.40312 38.434376 159.7 38.434376Q157.575 38.434376 156.27812 37.04375Q154.98125 35.653126 154.98125 33.059376Q154.98125 31.371876 155.52812 30.121876Q156.09062 28.85625 157.23125 28.23125Q158.37187 27.590626 159.71562 27.590626Q161.40312 27.590626 162.46562 28.45Q163.54375 29.309376 163.85625 30.871876L162.1375 31.1375Q161.90312 30.090626 161.27812 29.575Q160.65312 29.04375 159.77812 29.04375Q158.45 29.04375 157.62187 29.996876Q156.79375 30.95 156.79375 32.996876Q156.79375 35.090626 157.59062 36.04375Q158.3875 36.98125 159.68437 36.98125Q160.71562 36.98125 161.40312 36.35625Q162.10625 35.715626 162.29375 34.403126ZM172.62187 34.85625L174.43437 35.090626Q174.0125 36.66875 172.84062 37.559376Q171.68437 38.434376 169.87187 38.434376Q167.60625 38.434376 166.2625 37.04375Q164.93437 35.6375 164.93437 33.10625Q164.93437 30.48125 166.27812 29.04375Q167.62187 27.590626 169.77812 27.590626Q171.85625 27.590626 173.16875 29.0125Q174.49687 30.41875 174.49687 32.996876Q174.49687 33.153126 174.48125 33.465626L166.74687 33.465626Q166.84062 35.16875 167.71562 36.075Q168.59062 36.98125 169.8875 36.98125Q170.85625 36.98125 171.52812 36.48125Q172.21562 35.965626 172.62187 34.85625ZM166.84062 32.0125L172.6375 32.0125Q172.52812 30.715626 171.98125 30.059376Q171.1375 29.04375 169.79375 29.04375Q168.59062 29.04375 167.7625 29.85625Q166.93437 30.653126 166.84062 32.0125ZM189.62187 34.85625L191.43437 35.090626Q191.0125 36.66875 189.84062 37.559376Q188.68437 38.434376 186.87187 38.434376Q184.60625 38.434376 183.2625 37.04375Q181.93437 35.6375 181.93437 33.10625Q181.93437 30.48125 183.27812 29.04375Q184.62187 27.590626 186.77812 27.590626Q188.85625 27.590626 190.16875 29.0125Q191.49687 30.41875 191.49687 32.996876Q191.49687 33.153126 191.48125 33.465626L183.74687 33.465626Q183.84062 35.16875 184.71562 36.075Q185.59062 36.98125 186.8875 36.98125Q187.85625 36.98125 188.52812 36.48125Q189.21562 35.965626 189.62187 34.85625ZM183.84062 32.0125L189.6375 32.0125Q189.52812 30.715626 188.98125 30.059376Q188.1375 29.04375 186.79375 29.04375Q185.59062 29.04375 184.7625 29.85625Q183.93437 30.653126 183.84062 32.0125ZM196.40312 38.2L192.45 27.825L194.30937 27.825L196.54375 34.04375Q196.90312 35.04375 197.2 36.121876Q197.43437 35.309376 197.85625 34.153126L200.15312 27.825L201.96562 27.825L198.04375 38.2L196.40312 38.2ZM209.29375 36.91875Q208.30937 37.746876 207.40312 38.090626Q206.49687 38.434376 205.46562 38.434376Q203.7625 38.434376 202.84062 37.60625Q201.91875 36.7625 201.91875 35.465626Q201.91875 34.7 202.2625 34.075Q202.62187 33.45 203.18437 33.075Q203.74687 32.684376 204.45 32.48125Q204.96562 32.35625 206.0125 32.215626Q208.1375 31.965626 209.1375 31.621876Q209.15312 31.2625 209.15312 31.153126Q209.15312 30.090626 208.65312 29.6375Q207.98125 29.04375 206.65312 29.04375Q205.40312 29.04375 204.80937 29.48125Q204.23125 29.91875 203.95 31.028126L202.23125 30.79375Q202.46562 29.684376 202.99687 29.0125Q203.52812 28.325 204.54375 27.965626Q205.55937 27.590626 206.90312 27.590626Q208.23125 27.590626 209.05937 27.903126Q209.8875 28.215626 210.27812 28.7Q210.66875 29.16875 210.825 29.8875Q210.91875 30.340626 210.91875 31.5125L210.91875 33.85625Q210.91875 36.309376 211.02812 36.965626Q211.1375 37.60625 211.48125 38.2L209.6375 38.2Q209.37187 37.653126 209.29375 36.91875ZM209.1375 32.996876Q208.18437 33.3875 206.2625 33.653126Q205.18437 33.809376 204.73125 34.0125Q204.29375 34.2 204.04375 34.575Q203.79375 34.95 203.79375 35.41875Q203.79375 36.121876 204.325 36.590626Q204.85625 37.059376 205.8875 37.059376Q206.90312 37.059376 207.68437 36.621876Q208.48125 36.16875 208.85625 35.403126Q209.1375 34.79375 209.1375 33.6375L209.1375 32.996876ZM213.48125 38.2L213.48125 23.8875L215.23125 23.8875L215.23125 38.2L213.48125 38.2ZM224.30937 38.2L224.30937 36.66875Q223.10625 38.434376 221.02812 38.434376Q220.10625 38.434376 219.30937 38.090626Q218.5125 37.73125 218.12187 37.2Q217.74687 36.66875 217.59062 35.8875Q217.48125 35.371876 217.48125 34.246876L217.48125 27.825L219.23125 27.825L219.23125 33.575Q219.23125 34.95 219.34062 35.434376Q219.5125 36.121876 220.04375 36.528126Q220.59062 36.91875 221.37187 36.91875Q222.16875 36.91875 222.85625 36.5125Q223.55937 36.10625 223.84062 35.41875Q224.1375 34.715626 224.1375 33.3875L224.1375 27.825L225.8875 27.825L225.8875 38.2L224.30937 38.2ZM234.29375 36.91875Q233.30937 37.746876 232.40312 38.090626Q231.49687 38.434376 230.46562 38.434376Q228.7625 38.434376 227.84062 37.60625Q226.91875 36.7625 226.91875 35.465626Q226.91875 34.7 227.2625 34.075Q227.62187 33.45 228.18437 33.075Q228.74687 32.684376 229.45 32.48125Q229.96562 32.35625 231.0125 32.215626Q233.1375 31.965626 234.1375 31.621876Q234.15312 31.2625 234.15312 31.153126Q234.15312 30.090626 233.65312 29.6375Q232.98125 29.04375 231.65312 29.04375Q230.40312 29.04375 229.80937 29.48125Q229.23125 29.91875 228.95 31.028126L227.23125 30.79375Q227.46562 29.684376 227.99687 29.0125Q228.52812 28.325 229.54375 27.965626Q230.55937 27.590626 231.90312 27.590626Q233.23125 27.590626 234.05937 27.903126Q234.8875 28.215626 235.27812 28.7Q235.66875 29.16875 235.825 29.8875Q235.91875 30.340626 235.91875 31.5125L235.91875 33.85625Q235.91875 36.309376 236.02812 36.965626Q236.1375 37.60625 236.48125 38.2L234.6375 38.2Q234.37187 37.653126 234.29375 36.91875ZM234.1375 32.996876Q233.18437 33.3875 231.2625 33.653126Q230.18437 33.809376 229.73125 34.0125Q229.29375 34.2 229.04375 34.575Q228.79375 34.95 228.79375 35.41875Q228.79375 36.121876 229.325 36.590626Q229.85625 37.059376 230.8875 37.059376Q231.90312 37.059376 232.68437 36.621876Q233.48125 36.16875 233.85625 35.403126Q234.1375 34.79375 234.1375 33.6375L234.1375 32.996876ZM242.35625 36.621876L242.60625 38.184376Q241.87187 38.340626 241.27812 38.340626Q240.325 38.340626 239.79375 38.04375Q239.27812 37.73125 239.05937 37.246876Q238.84062 36.746876 238.84062 35.16875L238.84062 29.2L237.55937 29.2L237.55937 27.825L238.84062 27.825L238.84062 25.2625L240.59062 24.2L240.59062 27.825L242.35625 27.825L242.35625 29.2L240.59062 29.2L240.59062 35.2625Q240.59062 36.0125 240.68437 36.23125Q240.77812 36.434376 240.98125 36.575Q241.2 36.7 241.59062 36.7Q241.87187 36.7 242.35625 36.621876ZM244.52812 25.903126L244.52812 23.8875L246.29375 23.8875L246.29375 25.903126L244.52812 25.903126ZM244.52812 38.2L244.52812 27.825L246.29375 27.825L246.29375 38.2L244.52812 38.2ZM247.87187 33.0125Q247.87187 30.1375 249.46562 28.746876Q250.80937 27.590626 252.73125 27.590626Q254.87187 27.590626 256.21564 28.996876Q257.575 30.403126 257.575 32.871876Q257.575 34.871876 256.98126 36.028126Q256.3875 37.16875 255.23125 37.809376Q254.09062 38.434376 252.73125 38.434376Q250.54375 38.434376 249.2 37.04375Q247.87187 35.6375 247.87187 33.0125ZM249.66875 33.0125Q249.66875 35.0125 250.52812 35.996876Q251.40312 36.98125 252.73125 36.98125Q254.04375 36.98125 254.90312 35.996876Q255.77812 34.996876 255.77812 32.95Q255.77812 31.028126 254.90312 30.04375Q254.02812 29.04375 252.73125 29.04375Q251.40312 29.04375 250.52812 30.04375Q249.66875 31.028126 249.66875 33.0125ZM259.5125 38.2L259.5125 27.825L261.10626 27.825L261.10626 29.309376Q262.2469 27.590626 264.40314 27.590626Q265.34064 27.590626 266.1219 27.934376Q266.91876 28.2625 267.3094 28.809376Q267.7 29.35625 267.85626 30.10625Q267.95 30.60625 267.95 31.825L267.95 38.2L266.1844 38.2L266.1844 31.8875Q266.1844 30.809376 265.98126 30.278126Q265.77814 29.746876 265.2469 29.434376Q264.73126 29.121876 264.02814 29.121876Q262.90314 29.121876 262.09064 29.840626Q261.27814 30.54375 261.27814 32.528126L261.27814 38.2L259.5125 38.2Z" fill-rule="nonzero"/></svg>